<?xml version="1.0" ?><!DOCTYPE svg  PUBLIC '-//W3C//DTD SVG 1.1//EN'  'http://www.w3.org/Graphics/SVG/1.1/DTD/svg11.dtd'><svg enable-background="new 0 0 512 512" height="512px" id="Calque_1" version="1.1" viewBox="0 0 512 512" width="512px" xml:space="preserve" xmlns="http://www.w3.org/2000/svg" xmlns:xlink="http://www.w3.org/1999/xlink"><g><g><path d="M365.349,52.26v148.09c-0.21-0.18-0.43-0.34-0.64-0.51c-1.11-0.91-2.229-1.811-3.37-2.69    c-0.311-0.25-0.63-0.5-0.95-0.739c-1.37-1.051-2.76-2.091-4.159-3.101c-0.301-0.21-0.591-0.41-0.891-0.62    c-1.181-0.84-2.38-1.67-3.59-2.479c-0.351-0.24-0.711-0.48-1.061-0.71c-1.45-0.96-2.91-1.9-4.391-2.811    c-0.24-0.149-0.479-0.3-0.721-0.439c-1.29-0.79-2.59-1.561-3.89-2.311c-0.391-0.22-0.771-0.439-1.15-0.66    c-1.521-0.859-3.06-1.699-4.609-2.52c-0.149-0.08-0.3-0.15-0.449-0.23c-1.421-0.739-2.86-1.46-4.301-2.159    c-0.41-0.2-0.819-0.4-1.229-0.601c-0.109-0.05-0.22-0.1-0.33-0.16V91.03c0-8.34-7.159-15.119-15.96-15.119H198.329    c-8.801,0-15.96,6.779-15.96,15.119v86.591c-0.11,0.05-0.221,0.1-0.32,0.149c-0.42,0.2-0.84,0.4-1.25,0.601    c-1.43,0.699-2.85,1.409-4.25,2.14c-0.17,0.09-0.34,0.17-0.5,0.26c-1.55,0.811-3.07,1.65-4.58,2.5c-0.4,0.23-0.79,0.46-1.18,0.68    c-1.29,0.74-2.58,1.5-3.851,2.28c-0.25,0.16-0.51,0.311-0.76,0.46c-1.47,0.91-2.92,1.851-4.37,2.8    c-0.359,0.24-0.72,0.49-1.08,0.73c-1.2,0.8-2.39,1.62-3.56,2.46c-0.3,0.21-0.61,0.42-0.91,0.64c-1.4,1.011-2.78,2.04-4.15,3.091    c-0.319,0.239-0.64,0.489-0.96,0.739c-1.13,0.88-2.25,1.78-3.37,2.69c-0.21,0.17-0.42,0.34-0.63,0.51V52.26    c0-3.3,3.351-5.99,7.46-5.99h203.78c2.979,0,5.561,1.41,6.74,3.45C365.099,50.49,365.349,51.35,365.349,52.26z" fill="#DAE8EB"/><path d="M367.519,222.64c-7.88-7.97-16.489-15-25.729-21.05c-7.189-4.71-14.76-8.82-22.689-12.3    c-2.489-1.101-5-2.13-7.529-3.091c-0.54-0.199-1.08-0.39-1.62-0.59c-0.729-0.26-1.46-0.54-2.189-0.8    c-12.63-4.42-25.72-7.17-39.13-8.229c-2.83-0.23-5.67-0.381-8.521-0.45c-1.369-0.03-2.739-0.05-4.109-0.05    c-7.03,0-13.98,0.46-20.851,1.369c-11.89,1.561-23.489,4.49-34.729,8.75c-2.53,0.961-5.04,1.99-7.53,3.091    c-18.109,7.97-34.399,19.189-48.41,33.35c-29.22,29.53-45.31,68.69-45.31,110.27c0,54.4,27.42,103.891,73.43,132.82h166.8    c11.101-6.98,21.119-15.15,29.92-24.311c27.729-28.789,43.511-67.24,43.511-108.512C412.828,291.32,396.739,252.16,367.519,222.64    z M312.328,245.65c12.771,0,24.391,5.03,33,13.19v-5.69c0-4.14,3.36-7.5,7.5-7.5c4.141,0,7.5,3.36,7.5,7.5V369.14    c0,26.469-21.529,48-48,48c-14.09,0-27.419-6.16-36.561-16.9c-2.68-3.148-2.3-7.891,0.852-10.57c0.22-0.189,0.449-0.359,0.68-0.51    c3.12-2.1,7.4-1.568,9.891,1.359c0.699,0.82,1.439,1.611,2.21,2.352c6.13,5.93,14.319,9.27,22.93,9.27c18.2,0,33-14.799,33-33    v-40.68c-5.311,5.029-11.76,8.869-18.92,11.068c-4.449,1.381-9.18,2.121-14.08,2.121c-26.459,0-47.999-21.541-47.999-48    C264.329,267.179,285.86,245.65,312.328,245.65z M236.359,404.631c-1.47,1.459-3.39,2.188-5.3,2.188    c-1.92,0-3.84-0.729-5.31-2.188l-59.08-59.08v56.18c0,4.15-3.36,7.5-7.5,7.5c-4.141,0-7.5-3.35-7.5-7.5V253.15    c0-4.14,3.359-7.5,7.5-7.5c4.14,0,7.5,3.36,7.5,7.5v56.18l18.54-18.539l38.14-38.131c2.92-2.93,7.67-2.93,10.601,0    c2.93,2.932,2.93,7.682,0,10.61l-48.24,48.24l-15.931,15.93l66.58,66.58C239.289,396.949,239.289,401.699,236.359,404.631z" fill="#FFD11E"/><path d="M345.328,293.65c0,11.27-5.68,21.24-14.329,27.189c-5.311,3.67-11.74,5.811-18.671,5.811    c-18.189,0-32.999-14.811-32.999-33c0-15.061,10.14-27.791,23.938-31.74c2.881-0.818,5.921-1.26,9.061-1.26    C330.53,260.65,345.328,275.449,345.328,293.65z" fill="#FFD11E"/></g><path d="M164.499,69.15l17.87,108.471c-0.11,0.05-0.221,0.1-0.32,0.149   c-0.42,0.2-0.84,0.4-1.25,0.601c-1.43,0.699-2.85,1.409-4.25,2.14c-0.17,0.09-0.34,0.17-0.5,0.26c-1.55,0.811-3.07,1.65-4.58,2.5   c-0.4,0.23-0.79,0.46-1.18,0.68c-1.29,0.74-2.58,1.5-3.851,2.28c-0.25,0.16-0.51,0.311-0.76,0.46c-1.47,0.91-2.92,1.851-4.37,2.8   c-0.359,0.24-0.72,0.49-1.08,0.73c-1.2,0.8-2.39,1.62-3.56,2.46c-0.3,0.21-0.61,0.42-0.91,0.64c-1.4,1.011-2.78,2.04-4.15,3.091   c-0.319,0.239-0.64,0.489-0.96,0.739c-1.13,0.88-2.25,1.78-3.37,2.69c-0.21,0.17-0.42,0.34-0.63,0.51V52.26   c0-3.3,3.351-5.99,7.46-5.99h203.78c2.979,0,5.561,1.41,6.74,3.45L164.499,69.15z" enable-background="new    " opacity="0.3"/><path d="M365.349,52.26v148.09c-0.21-0.18-0.43-0.34-0.64-0.51   c-1.11-0.91-2.229-1.811-3.37-2.69c-0.311-0.25-0.63-0.5-0.95-0.739c-1.37-1.051-2.76-2.091-4.159-3.101   c-0.301-0.21-0.591-0.41-0.891-0.62c-1.181-0.84-2.38-1.67-3.59-2.479c-0.351-0.24-0.711-0.48-1.061-0.71   c-1.45-0.96-2.91-1.9-4.391-2.811c-0.24-0.149-0.479-0.3-0.721-0.439c-1.29-0.79-2.59-1.561-3.89-2.311   c-0.391-0.22-0.771-0.439-1.15-0.66c-1.521-0.859-3.06-1.699-4.609-2.52c-0.149-0.08-0.3-0.15-0.449-0.23   c-1.421-0.739-2.86-1.46-4.301-2.159c-0.41-0.2-0.819-0.4-1.229-0.601L365.349,52.26z" enable-background="new    " fill="#FFFFFF" opacity="0.7"/><path d="M369.32,441.42c-8.801,9.16-18.819,17.33-29.92,24.311H172.599   c-46.01-28.93-73.43-78.42-73.43-132.82c0-41.58,16.09-80.74,45.31-110.27c14.011-14.16,30.3-25.38,48.41-33.35   c2.49-1.101,5-2.13,7.53-3.091c11.24-4.26,22.84-7.189,34.729-8.75c-33.21,44.73-47.85,82.121-49.939,113.341l-18.54,18.539v-56.18   c0-4.14-3.36-7.5-7.5-7.5c-4.141,0-7.5,3.36-7.5,7.5V401.73c0,4.15,3.359,7.5,7.5,7.5c4.14,0,7.5-3.35,7.5-7.5v-56.18l59.08,59.08   c1.47,1.459,3.39,2.188,5.31,2.188c1.91,0,3.83-0.729,5.3-2.188c2.931-2.932,2.931-7.682,0-10.611l-66.58-66.58l15.931-15.93   C197.109,406.869,334.15,435.599,369.32,441.42z" enable-background="new    " opacity="0.3"/><path d="M369.32,441.42l16.76-128.682l-25.75-37.158v-22.43   c0-4.14-3.359-7.5-7.5-7.5c-4.14,0-7.5,3.36-7.5,7.5v0.78l-15.38-22.19l-94.8-54.29c6.87-0.909,13.82-1.369,20.851-1.369   c1.37,0,2.74,0.02,4.109,0.05c2.851,0.069,5.689,0.22,8.521,0.45c13.41,1.06,26.5,3.81,39.13,8.229c0.729,0.26,1.46,0.54,2.189,0.8   c0.54,0.2,1.08,0.391,1.62,0.59c2.529,0.961,5.04,1.99,7.529,3.091c7.931,3.479,15.5,7.59,22.689,12.3   c9.24,6.05,17.851,13.08,25.729,21.05c29.221,29.521,45.311,68.68,45.311,110.27C412.828,374.179,397.049,412.631,369.32,441.42z" enable-background="new    " fill="#FFFFFF" opacity="0.7"/><path d="M330.999,320.84c-5.311,3.67-11.74,5.811-18.671,5.811   c-18.189,0-32.999-14.811-32.999-33c0-15.061,10.14-27.791,23.938-31.74l0.021,0.01C303.288,261.92,266.94,319.279,330.999,320.84z   " enable-background="new    " opacity="0.3"/><path d="M312.328,402.14c-8.609,0-16.8-3.34-22.93-9.271   c59.58,17.631,43.899-35.199,37.01-53.34c7.16-2.199,13.609-6.041,18.92-11.07v40.682C345.328,387.34,330.53,402.14,312.328,402.14   z" enable-background="new    " opacity="0.3"/></g></svg>